Coordinates
version=1
nRows=10
nColumns=46
inDegrees=yes

Units are S.I. units (second, meters, Newtons, ...)
Angles are in degrees.

endheader
time	pelvis_tilt	pelvis_list	pelvis_rotation	pelvis_tx	pelvis_ty	pelvis_tz	bb_angle	bb_tx	bb_ty	bb_tz	hip_flexion_r	hip_adduction_r	hip_rotation_r	knee_angle_r	knee_angle_r_beta	ankle_angle_r	subtalar_angle_r	mtp_angle_r	crank_angle_r	hip_flexion_l	hip_adduction_l	hip_rotation_l	knee_angle_l	knee_angle_l_beta	ankle_angle_l	subtalar_angle_l	mtp_angle_l	crank_angle_l	lumbar_extension	lumbar_bending	lumbar_rotation	arm_flex_r	arm_add_r	arm_rot_r	elbow_flex_r	pro_sup_r	wrist_flex_r	wrist_dev_r	arm_flex_l	arm_add_l	arm_rot_l	elbow_flex_l	pro_sup_l	wrist_flex_l	wrist_dev_l
      5.00500000	    -22.95853690	     -5.01500693	     -8.56682899	      0.08513426	      1.00767241	     -0.22532591	      0.00000000	      0.50000000	      0.00000000	      0.25000000	     87.38708047	      1.09775292	     -1.67693148	     78.65266159	      1.37274791	      5.46379110	     -7.58769335	      0.00000000	      0.00000000	     60.56861796	    -13.89954308	      1.99256113	     77.18553348	      1.34714169	     -7.05466731	    -13.27415905	      0.00000000	      0.00000000	    -54.21186579	     13.51049626	      3.29996487	     86.18066106	      3.21643401	     30.37529176	     61.77660914	     47.02736000	      0.00000000	      0.00000000	     66.70926592	    -44.67838447	     20.78879742	     78.34656283	     49.06402725	      0.00000000	      0.00000000
      5.01000000	    -22.69389084	     -4.77395411	     -8.57570875	      0.08546422	      1.00681460	     -0.22496245	      0.00000000	      0.50000000	      0.00000000	      0.25000000	     85.34925077	      1.04842587	     -1.79275538	     75.82792354	      1.32344693	      5.48328843	     -7.59420393	      0.00000000	      0.00000000	     61.43063436	    -13.56136495	      2.40495477	     79.90040422	      1.39452513	     -6.35307218	    -13.60782315	      0.00000000	      0.00000000	    -54.15871962	     13.10511914	      2.92913658	     86.06027105	      3.19982928	     30.28418264	     61.63579525	     46.99394605	      0.00000000	      0.00000000	     66.80198066	    -44.77881433	     20.98213138	     78.33390931	     49.08545376	      0.00000000	      0.00000000
      5.01500000	    -22.50810286	     -4.90852261	     -8.75527979	      0.08558429	      1.00538564	     -0.22395097	      0.00000000	      0.50000000	      0.00000000	      0.25000000	     83.45559329	      1.31441408	     -2.19357621	     73.09127958	      1.27568348	      5.04454567	     -7.79803561	      0.00000000	      0.00000000	     62.57958813	    -13.74403031	      3.12825161	     82.88011139	      1.44653083	     -5.02408891	    -12.90647337	      0.00000000	      0.00000000	    -54.09064319	     12.85080372	      3.11894976	     86.08370415	      3.40729019	     29.89939643	     60.98343654	     46.83733324	      0.00000000	      0.00000000	     67.18332955	    -45.30045566	     22.29699591	     78.32104601	     49.23557433	      0.00000000	      0.00000000
      5.02000000	    -22.20348258	     -4.48430814	     -8.68317776	      0.08586520	      1.00421297	     -0.22322167	      0.00000000	      0.50000000	      0.00000000	      0.25000000	     81.72459109	      1.04086989	     -2.15411159	     70.73806624	      1.23461216	      4.59526386	     -7.17252275	      0.00000000	      0.00000000	     63.45576429	    -13.23047555	      3.37323969	     85.52754356	      1.49273724	     -4.27424496	    -13.40333361	      0.00000000	      0.00000000	    -53.95622873	     12.27479127	      2.57662906	     85.84388495	      3.28918024	     29.79492138	     60.86256077	     46.80946102	      0.00000000	      0.00000000	     67.48417168	    -45.38612697	     22.53918471	     78.32246309	     49.26159148	      0.00000000	      0.00000000
      5.02500000	    -21.89956048	     -4.39392733	     -8.97715434	      0.08611301	      1.00241478	     -0.22237990	      0.00000000	      0.50000000	      0.00000000	      0.25000000	     80.01944530	      1.21725622	     -2.33358086	     68.51070970	      1.19573746	      3.95636743	     -6.58652414	      0.00000000	      0.00000000	     64.50714530	    -13.28863967	      3.83126261	     88.49972352	      1.54461156	     -3.01527399	    -12.89696447	      0.00000000	      0.00000000	    -53.81935036	     11.62274538	      2.72197349	     85.68098916	      3.13991021	     29.28505607	     60.44139848	     46.69793649	      0.00000000	      0.00000000	     68.50919808	    -45.76164222	     24.95285245	     78.13670693	     49.48525259	      0.00000000	      0.00000000
      5.03000000	    -21.66251518	     -3.92968160	     -9.10564761	      0.08633971	      1.00110407	     -0.22159835	      0.00000000	      0.50000000	      0.00000000	      0.25000000	     78.38546724	      1.13497301	     -2.15220355	     66.22736942	      1.15588565	      3.32631518	     -5.99308591	      0.00000000	      0.00000000	     65.51989939	    -12.88028210	      4.02716244	     91.09051464	      1.58982940	     -2.51430800	    -13.18839148	      0.00000000	      0.00000000	    -53.58698346	     10.85751534	      2.35753646	     85.35698524	      2.93411457	     29.13286887	     60.41308215	     46.67920864	      0.00000000	      0.00000000	     68.75891143	    -45.73743399	     25.22250240	     78.11658284	     49.50184676	      0.00000000	      0.00000000
      5.03500000	    -21.36168371	     -3.45254751	     -9.24454332	      0.08652459	      0.99956702	     -0.22069203	      0.00000000	      0.50000000	      0.00000000	      0.25000000	     76.76000750	      1.06892864	     -1.95058708	     64.13174167	      1.11931005	      2.70469866	     -5.49705832	      0.00000000	      0.00000000	     66.57088673	    -12.46208127	      4.29406489	     93.73068822	      1.63590912	     -2.10671039	    -13.32635449	      0.00000000	      0.00000000	    -53.34568937	     10.00726279	      1.88476826	     85.07145033	      2.72016578	     29.00148286	     60.35096415	     46.65741695	      0.00000000	      0.00000000	     68.90771755	    -45.58372314	     25.56872309	     78.16559210	     49.53691881	      0.00000000	      0.00000000
      5.04000000	    -21.10744626	     -3.22504025	     -9.61502970	      0.08643834	      0.99801588	     -0.21911416	      0.00000000	      0.50000000	      0.00000000	      0.25000000	     75.10053898	      1.34339881	     -1.98744741	     61.89911335	      1.08034333	      1.66157733	     -5.19899006	      0.00000000	      0.00000000	     67.82136005	    -12.55249097	      4.73399212	     96.45647234	      1.68348303	     -1.26515697	    -12.53882832	      0.00000000	      0.00000000	    -53.11453925	      8.85391949	      2.77859663	     84.46417845	      1.29804950	     28.09468908	     60.99473456	     46.77021270	      0.00000000	      0.00000000	     72.62159168	    -45.36926666	     32.17623566	     76.44304545	     49.85091598	      0.00000000	      0.00000000
      5.04500000	    -20.85177848	     -2.66214086	     -9.78846306	      0.08653062	      0.99660058	     -0.21795452	      0.00000000	      0.50000000	      0.00000000	      0.25000000	     73.52169007	      1.25183896	     -1.74989414	     59.83300186	      1.04428288	      0.71916177	     -4.60489192	      0.00000000	      0.00000000	     69.03582911	    -12.07159036	      5.00748280	     98.93962954	      1.72682230	     -1.09243806	    -12.55614337	      0.00000000	      0.00000000	    -52.82620271	      7.84543882	      2.41293012	     84.07467233	      0.93654399	     27.91568881	     60.93752914	     46.75048499	      0.00000000	      0.00000000	     72.89763002	    -45.01165317	     32.38843774	     76.57734099	     49.88319462	      0.00000000	      0.00000000
      5.05000000	    -20.63339529	     -2.20536959	    -10.00116079	      0.08654612	      0.99527492	     -0.21655231	      0.00000000	      0.50000000	      0.00000000	      0.25000000	     71.93644859	      1.27933780	     -1.56917475	     57.77224690	      1.00831592	     -0.36127892	     -4.15475930	      0.00000000	      0.00000000	     70.42688303	    -11.77643182	      5.34412329	    101.38117631	      1.76943533	     -1.11114348	    -12.41954976	      0.00000000	      0.00000000	    -52.56219292	      6.81342350	      2.29269762	     83.70228200	      0.44981049	     27.63795601	     60.87179018	     46.72517691	      0.00000000	      0.00000000	     73.42687363	    -44.55205616	     32.97281761	     76.68784875	     49.94437280	      0.00000000	      0.00000000
